nColumns=19
nRows=31
DataType=double
version=3
OpenSimVersion=4.1
endheader
time	ground_force_calcn_r_vx	ground_force_calcn_r_vy	ground_force_calcn_r_vz	ground_force_calcn_r_px	ground_force_calcn_r_py	ground_force_calcn_r_pz	ground_force_calcn_r_mx	ground_force_calcn_r_my	ground_force_calcn_r_mz	ground_force_calcn_l_vx	ground_force_calcn_l_vy	ground_force_calcn_l_vz	ground_force_calcn_l_px	ground_force_calcn_l_py	ground_force_calcn_l_pz	ground_force_calcn_l_mx	ground_force_calcn_l_my	ground_force_calcn_l_mz
0	-1.27923	351.899	-30.3349	-0.236187	0	-0.445709	0.0049603	-1.36452	0.117626	-0.162825	203.81	34.0759	-0.237287	0	-0.837435	-0.0012294	1.53886	0.257288
0.01	-1.33271	349.911	-30.1407	-0.236215	0	-0.445812	0.00511994	-1.34427	0.115793	-0.12867	206.706	34.7019	-0.237463	0	-0.83764	-0.000942501	1.51411	0.25419
0.02	-1.39192	347.519	-29.8881	-0.236241	0	-0.445929	0.00529134	-1.32108	0.113619	-0.122172	210.098	35.4442	-0.237624	0	-0.837867	-0.000866079	1.48938	0.251264
0.03	-1.45549	344.71	-29.5714	-0.236265	0	-0.446062	0.005468	-1.29501	0.111094	-0.152606	213.957	36.2974	-0.237761	0	-0.838114	-0.00104509	1.46524	0.248576
0.04	-1.52104	341.482	-29.1879	-0.23629	0	-0.446213	0.00563985	-1.26618	0.108225	-0.229383	218.224	37.2492	-0.237859	0	-0.838374	-0.00151569	1.44196	0.246132
0.05	-1.58549	337.84	-28.7373	-0.236322	0	-0.446383	0.00579498	-1.23481	0.105035	-0.362024	222.812	38.2802	-0.237909	0	-0.838643	-0.00230658	1.41961	0.243896
0.06	-1.64553	333.79	-28.221	-0.236366	0	-0.446577	0.00592129	-1.20111	0.101551	-0.55984	227.604	39.3637	-0.2379	0	-0.838918	-0.00343911	1.39817	0.241812
0.07	-1.69757	329.342	-27.6419	-0.23643	0	-0.446794	0.00600684	-1.16538	0.097811	-0.83131	232.454	40.4669	-0.237822	0	-0.839195	-0.00492615	1.37747	0.239797
0.08	-1.73807	324.509	-27.0041	-0.236525	0	-0.447038	0.00604136	-1.12796	0.0938636	-1.18302	237.199	41.5529	-0.237666	0	-0.839472	-0.00676915	1.35724	0.237763
0.09	-1.76419	319.304	-26.3131	-0.236662	0	-0.447307	0.00601838	-1.08928	0.0897647	-1.61755	241.663	42.5831	-0.237428	0	-0.839745	-0.00894966	1.33709	0.235606
0.1	-1.77453	313.743	-25.5754	-0.236854	0	-0.4476	0.00593697	-1.04967	0.0855664	-2.13127	245.676	43.5211	-0.237104	0	-0.840013	-0.0114206	1.31647	0.233211
0.11	-1.76957	307.844	-24.7978	-0.237113	0	-0.447916	0.0058026	-1.00945	0.0813146	-2.71353	249.089	44.3356	-0.236696	0	-0.840275	-0.0141048	1.29475	0.230453
0.12	-1.75177	301.632	-23.9873	-0.237455	0	-0.448253	0.0056267	-0.968843	0.0770472	-3.34658	251.786	45.0031	-0.236208	0	-0.840529	-0.0168965	1.27123	0.227214
0.13	-1.72546	295.131	-23.1497	-0.237893	0	-0.448613	0.00542539	-0.927984	0.0727898	-4.0064	253.696	45.5095	-0.235651	0	-0.840777	-0.0196662	1.24532	0.223393
0.14	-1.69575	288.367	-22.2895	-0.238435	0	-0.448992	0.00521608	-0.887013	0.068562	-4.66478	254.789	45.8502	-0.235038	0	-0.841018	-0.0222745	1.21663	0.218936
0.15	-1.66705	281.367	-21.4084	-0.239093	0	-0.449391	0.00501285	-0.846078	0.0643757	-5.2926	255.072	46.0281	-0.234388	0	-0.841254	-0.0245913	1.18515	0.213862
0.16	-1.64084	274.164	-20.5059	-0.239873	0	-0.449811	0.0048204	-0.80543	0.0602415	-5.86374	254.579	46.0518	-0.233715	0	-0.841485	-0.0265149	1.15117	0.208239
0.17	-1.61412	266.802	-19.5788	-0.240777	0	-0.450251	0.00463091	-0.765456	0.0561717	-6.35753	253.358	45.9321	-0.233034	0	-0.841708	-0.0279834	1.11518	0.202175
0.18	-1.58021	259.338	-18.6238	-0.241812	0	-0.450717	0.00442709	-0.726555	0.052176	-6.75917	251.454	45.6783	-0.232357	0	-0.841926	-0.0289736	1.07788	0.195803
0.19	-1.53123	251.844	-17.6395	-0.242974	0	-0.451208	0.00418956	-0.689062	0.0482628	-7.06014	248.897	45.2962	-0.23169	0	-0.842134	-0.0295007	1.04001	0.189269
0.2	-1.46094	244.412	-16.6298	-0.24426	0	-0.451724	0.00390449	-0.653211	0.0444446	-7.25828	245.692	44.7861	-0.231038	0	-0.842334	-0.0296165	1.00252	0.182744
0.21	-1.36785	237.161	-15.6069	-0.245658	0	-0.452259	0.00357058	-0.619076	0.0407398	-7.35758	241.814	44.1428	-0.230395	0	-0.842523	-0.0294012	0.966302	0.176397
0.22	-1.25646	230.244	-14.5914	-0.247155	0	-0.452808	0.00320123	-0.58662	0.0371763	-7.36928	237.215	43.3564	-0.229754	0	-0.842699	-0.0289602	0.932218	0.170384
0.23	-1.13643	223.863	-13.6108	-0.248734	0	-0.453358	0.00282094	-0.555688	0.0337857	-7.31069	231.83	42.4151	-0.229097	0	-0.842863	-0.0284127	0.900995	0.164844
0.24	-1.01755	218.265	-12.696	-0.250378	0	-0.453894	0.0024527	-0.526103	0.0306023	-7.20181	225.598	41.3068	-0.228399	0	-0.843018	-0.0278748	0.873184	0.159879
0.25	-0.902065	213.738	-11.8778	-0.252063	0	-0.4544	0.00210099	-0.497815	0.0276645	-7.0612	218.475	40.0218	-0.227631	0	-0.843165	-0.0274471	0.849218	0.155566
0.26	-0.781135	210.573	-11.1845	-0.253765	0	-0.454857	0.00174694	-0.470928	0.0250132	-6.90127	210.445	38.5543	-0.226761	0	-0.843306	-0.0272047	0.829568	0.15198
0.27	-0.635239	209.033	-10.6403	-0.255447	0	-0.455246	0.00135482	-0.445821	0.0226933	-6.72631	201.535	36.9046	-0.225757	0	-0.843445	-0.0271952	0.81483	0.149209
0.28	-0.440242	209.313	-10.2645	-0.257077	0	-0.455553	0.000889977	-0.423139	0.0207504	-6.53613	191.827	35.0815	-0.224586	0	-0.843582	-0.027451	0.805648	0.147338
0.29	-0.179903	211.525	-10.0734	-0.258613	0	-0.455761	0.000343217	-0.403543	0.0192179	-6.32963	181.453	33.1039	-0.223217	0	-0.843719	-0.0279989	0.802653	0.146434
0.3	0.144344	215.711	-10.0795	-0.260022	0	-0.455865	-0.000259248	-0.387426	0.0181031	-6.1061	170.602	30.9998	-0.221627	0	-0.843853	-0.0288592	0.806315	0.146514
